<svg width="32" height="32" viewBox="0 0 32 32" fill="none" xmlns="http://www.w3.org/2000/svg">
<path fill-rule="evenodd" clip-rule="evenodd" d="M11 8H10C8.89543 8 8 8.89543 8 10V11C8 12.1046 8.89543 13 10 13H11C12.1046 13 13 12.1046 13 11V10C13 8.89543 12.1046 8 11 8ZM10 6C7.79086 6 6 7.79086 6 10V11C6 13.2091 7.79086 15 10 15H11C13.2091 15 15 13.2091 15 11V10C15 7.79086 13.2091 6 11 6H10Z" fill="#7C9094"/>
<path fill-rule="evenodd" clip-rule="evenodd" d="M22 8H21C19.8954 8 19 8.89543 19 10V11C19 12.1046 19.8954 13 21 13H22C23.1046 13 24 12.1046 24 11V10C24 8.89543 23.1046 8 22 8ZM21 6C18.7909 6 17 7.79086 17 10V11C17 13.2091 18.7909 15 21 15H22C24.2091 15 26 13.2091 26 11V10C26 7.79086 24.2091 6 22 6H21Z" fill="#7C9094"/>
<path fill-rule="evenodd" clip-rule="evenodd" d="M11 19H10C8.89543 19 8 19.8954 8 21V22C8 23.1046 8.89543 24 10 24H11C12.1046 24 13 23.1046 13 22V21C13 19.8954 12.1046 19 11 19ZM10 17C7.79086 17 6 18.7909 6 21V22C6 24.2091 7.79086 26 10 26H11C13.2091 26 15 24.2091 15 22V21C15 18.7909 13.2091 17 11 17H10Z" fill="#7C9094"/>
<path fill-rule="evenodd" clip-rule="evenodd" d="M22 19H21C19.8954 19 19 19.8954 19 21V22C19 23.1046 19.8954 24 21 24H22C23.1046 24 24 23.1046 24 22V21C24 19.8954 23.1046 19 22 19ZM21 17C18.7909 17 17 18.7909 17 21V22C17 24.2091 18.7909 26 21 26H22C24.2091 26 26 24.2091 26 22V21C26 18.7909 24.2091 17 22 17H21Z" fill="#7C9094"/>
</svg>
