<svg width="32" height="32" viewBox="0 0 32 32" fill="none" xmlns="http://www.w3.org/2000/svg">
<path fill-rule="evenodd" clip-rule="evenodd" d="M22.1379 21.9314C20.5422 23.4062 18.5114 24.8847 16.9782 25.7445C16.3706 26.0852 15.6294 26.0852 15.0218 25.7445C13.4886 24.8847 11.4578 23.4062 9.86207 21.9314C6.88183 19.1766 5 16.1737 5 12.9863C5 9.29096 7.37338 6 11.2285 6C12.5519 6 13.5442 6.16583 14.6656 6.7347C15.1481 6.97768 15.5936 7.28523 15.9926 7.64658C16.4 7.27083 16.8578 6.95235 17.3554 6.70327C18.4694 6.14177 19.4263 6 20.776 6H20.784C24.593 6.01528 27 9.3297 27 12.9863C27 16.1737 25.1182 19.1766 22.1379 21.9314ZM18.253 8.49054C17.9307 8.65163 17.6305 8.85872 17.3605 9.10577C17.2608 9.19701 17.1651 9.29369 17.074 9.39553L16.0045 10.5871L14.9275 9.40524C14.8348 9.30388 14.7377 9.20766 14.6366 9.11689C14.371 8.87847 14.0776 8.67762 13.7635 8.51968C12.9985 8.13113 12.3385 8 11.2285 8C8.7715 8 7 10.0771 7 12.9863C7 15.3565 8.4085 17.8642 11.2195 20.4626C12.712 21.842 14.617 23.2245 16 24C17.383 23.2245 19.288 21.842 20.7805 20.4626C23.5915 17.8642 25 15.3565 25 12.9863C25 10.1208 23.197 8.00971 20.776 8C19.6105 8 18.994 8.11656 18.253 8.49054Z" fill="#7C9094"/>
</svg>
