<svg width="32" height="32" viewBox="0 0 32 32" fill="none" xmlns="http://www.w3.org/2000/svg">
<path fill-rule="evenodd" clip-rule="evenodd" d="M14.6621 6.20402C15.4227 5.51948 16.5773 5.51948 17.3379 6.20402L25.3379 13.404C25.7594 13.7833 26 14.3236 26 14.8906V24.9999C26 26.1045 25.1046 26.9999 24 26.9999H20C18.8954 26.9999 18 26.1045 18 24.9999V20.9999C18 19.8953 17.1046 18.9999 16 18.9999C14.8954 18.9999 14 19.8953 14 20.9999V24.9999C14 26.1045 13.1046 26.9999 12 26.9999H8C6.89543 26.9999 6 26.1045 6 24.9999V14.8906C6 14.3236 6.24064 13.7833 6.66207 13.404L14.6621 6.20402Z" fill="#00B4CC"/>
</svg>
